# xmcd
#
# Track frame offsets:
#	150
#	13994
#	23557
#	39842
#	52190
#	62085
#	71392
#	83147
#	93552
#	105910
#	119900
#	132297
#
# Disc length: 1887 seconds
#
# Revision: 1
# Processed by: cddbd v1.5.2PL0 Copyright (c) Steve Scherf et al.
# Submitted via: audiograbber 1.83.01
#
DISCID=9e075d0c
DTITLE=Esther Phillips - Esther Phillips Sings
DYEAR=1966
DGENRE=R&B Oldies
TTITLE0=It's All Right With Me
TTITLE1=The Shadow Of Your Smile
TTITLE2=Crazy He Calls Me
TTITLE3=He Touched Me
TTITLE4=A Taste Of Honey
TTITLE5=Let There Be Love
TTITLE6=You Can't Go Home Again
TTITLE7=Just Say Goodbye
TTITLE8=I Could Have Told You So
TTITLE9=Every Time We Say Goodbye
TTITLE10=As Tears Go By
TTITLE11=The Party's Over
EXTD=Esther Phillips - Original Album Series (2016) [Box-Set]\n\nMARO\n
EXTT0=
EXTT1=
EXTT2=
EXTT3=
EXTT4=
EXTT5=
EXTT6=
EXTT7=
EXTT8=
EXTT9=
EXTT10=
EXTT11=
PLAYORDER=
